<?xml version="1.0" standalone="no"?><!DOCTYPE svg PUBLIC "-//W3C//DTD SVG 1.1//EN" "http://www.w3.org/Graphics/SVG/1.1/DTD/svg11.dtd"><svg xmlns="http://www.w3.org/2000/svg" fill="currentColor" data-id="geomicon-clock" viewBox="0 0 32 32"><path d="M16 0 A16 16 0 0 0 0 16 A16 16 0 0 0 16 32 A16 16 0 0 0 32 16 A16 16 0 0 0 16 0 M16 4 A12 12 0 0 1 28 16 A12 12 0 0 1 16 28 A12 12 0 0 1 4 16 A12 12 0 0 1 16 4 M14 6 L14 17.25 L22 22 L24.25 18.5 L18 14.75 L18 6z"></path></svg>28 A12 12 0 0 1 4 16 A12 12 0 0 1 16 4 M14 6 L14 17.25 L22 22 L24.25 18.5 L18 14.75 L18 6z"></path></svg>